<svg xmlns="http://www.w3.org/2000/svg" width="40.001" height="40.001" viewBox="0 0 40.001 40.001">
  <g id="More_Button" data-name="More Button" style="isolation: isolate">
    <path id="Subtraction_2" data-name="Subtraction 2" d="M20,40A20,20,0,0,0,34.143,5.857,20,20,0,0,0,5.858,34.143,19.869,19.869,0,0,0,20,40Zm3.622-26.57a1,1,0,1,1,0,2H17.55l8.511,8.511a1,1,0,0,1-.708,1.708.989.989,0,0,1-.706-.294l-8.685-8.683L15.5,22.58a1,1,0,0,1-.991.919l-.082,0a.994.994,0,0,1-.919-1.073l.635-8.062a1,1,0,0,1,.635-.865h.006a.04.04,0,0,1,.017-.006.021.021,0,0,1,.014-.006l.006,0a.993.993,0,0,1,.314-.052h8.492Z" fill="#fff"/>
  </g>
</svg>
