<svg id="Component_6_1" data-name="Component 6 – 1" xmlns="http://www.w3.org/2000/svg" xmlns:xlink="http://www.w3.org/1999/xlink" width="31" height="31" viewBox="0 0 31 31">
  <defs>
    <clipPath id="clip-path">
      <rect id="Rectangle_312" data-name="Rectangle 312" width="31" height="31" rx="6" transform="translate(471 35)" fill="#cfcfcf"/>
    </clipPath>
  </defs>
  <g id="Mask_Group_18" data-name="Mask Group 18" transform="translate(-471 -35)" clip-path="url(#clip-path)">
    <g id="الاعدادات_-_settings" data-name="الاعدادات - settings" transform="translate(472 36)">
      <path id="Path_47" data-name="Path 47" d="M22.837,16.837l3-.818a12.546,12.546,0,0,0,0-4.036l-3-.818a.982.982,0,0,1-.6-1.418l1.527-2.727a11.237,11.237,0,0,0-2.782-2.782L18.255,5.764l-.436.109a.982.982,0,0,1-.982-.709l-.818-3a12.546,12.546,0,0,0-4.036,0l-.818,3a.982.982,0,0,1-.982.709l-.436-.109L7.018,4.237A11.237,11.237,0,0,0,4.237,7.018L5.764,9.746a.982.982,0,0,1-.6,1.418l-3,.818a12.546,12.546,0,0,0,0,4.036l3,.818a.982.982,0,0,1,.6,1.418L4.237,20.982a11.237,11.237,0,0,0,2.782,2.782l2.727-1.527.436-.109a.982.982,0,0,1,.982.709l.818,3a12.546,12.546,0,0,0,4.036,0l.818-3a.982.982,0,0,1,.982-.709l.436.109,2.727,1.527a11.237,11.237,0,0,0,2.782-2.782l-1.527-2.727a.982.982,0,0,1,.6-1.418ZM14,18.91A4.909,4.909,0,1,1,18.91,14,4.909,4.909,0,0,1,14,18.91Z" fill="#23283b"/>
    </g>
  </g>
</svg>
