 <svg xmlns="http://www.w3.org/2000/svg" width="121.337" height="38.594" viewBox="0 0 121.337 38.594">
  <g id="Group_28" data-name="Group 28" transform="translate(-691.419 -469.235)">
    <path id="Path_98" data-name="Path 98" d="M705.258,528.63a7.287,7.287,0,0,0,4.41-6.768c0-4.512-3.333-7.643-8.048-7.643h-10.2V518.7h9.394c2.154,0,3.5,1.279,3.5,3.2a3.29,3.29,0,0,1-3.57,3.366h-9.325v12.93H696.6v-8.653h3.8l3.8,8.653h5.624Z" transform="translate(0 -36.66)" fill="#23283b"/>
    <path id="Path_99" data-name="Path 99" d="M803.7,538.2v.033h5.185V514.223H803.7Z" transform="translate(-91.506 -36.663)" fill="#23283b"/>
    <path id="Path_100" data-name="Path 100" d="M865.77,514.22h-5.05L859.267,518l-.785,2.043h4.763l.305.894,2.522,7.389,1.549,4.412,2.087,5.487h5.252Zm-14.819,0H846.3l-4.78,17-4.547-17h-5.252l7.071,24.006h5.152l4.68-16.4,3.907,13.689.774,2.707h3.438l2.088-5.487,1.377-3.84h-5.132Z" transform="translate(-114.341 -36.66)" fill="#23283b"/>
    <path id="Path_101" data-name="Path 101" d="M1086.94,536.852a13.889,13.889,0,0,1-2.121-.168l-4.007,6.027h-5.623l5.152-7.643a12.648,12.648,0,1,1,6.6,1.785Zm0-19.9a7.139,7.139,0,0,0-7.138,7.475c0,4.242,3,7.508,7.138,7.508a7.5,7.5,0,0,0,0-14.983Z" transform="translate(-312.147 -34.881)" fill="#23283b"/>
    <path id="Path_102" data-name="Path 102" d="M1209.828,512.033c-.065,0-.13,0-.194,0v4.917c.065,0,.13,0,.194,0a7.5,7.5,0,0,1,0,14.982c-.065,0-.13,0-.194,0v4.917c.065,0,.13,0,.194,0a12.409,12.409,0,1,0,0-24.816Z" transform="translate(-422.316 -34.878)" fill="#ff8c32"/>
    <path id="Path_103" data-name="Path 103" d="M1278.558,512.033c-.065,0-.13,0-.194,0v4.917c.065,0,.13,0,.194,0a7.5,7.5,0,0,1,0,14.982c-.065,0-.13,0-.194,0v4.917c.065,0,.13,0,.194,0a12.409,12.409,0,1,0,0-24.816Z" transform="translate(-478.327 -34.878)" fill="#ff8c32"/>
    <rect id="Rectangle_61" data-name="Rectangle 61" width="5.185" height="5.185" transform="translate(712.198 469.235)" fill="#ff8c32"/>
  </g>
</svg>
