<svg id="اصناف_المنتوجات" data-name="اصناف المنتوجات" xmlns="http://www.w3.org/2000/svg" width="626" height="433" viewBox="0 0 626 433">
  <rect id="Rectangle_9" data-name="Rectangle 9" width="626" height="433" rx="20" fill="#fff"/>
  <g id="Group_100" data-name="Group 100" transform="translate(-30 -136)">
    <text id="_80_451_sales" data-name="80,451 sales" transform="translate(84 275)" fill="#707070" font-size="12" font-family="Montserrat-Regular, Montserrat" letter-spacing="0.01em"><tspan x="0" y="0">80,451 sales</tspan></text>
    <text id="_15_451_sales" data-name="15,451 sales" transform="translate(84 332)" fill="#707070" font-size="12" font-family="Montserrat-Regular, Montserrat" letter-spacing="0.01em"><tspan x="0" y="0">15,451 sales</tspan></text>
    <text id="_11_451_sales" data-name="11,451 sales" transform="translate(84 389)" fill="#707070" font-size="12" font-family="Montserrat-Regular, Montserrat" letter-spacing="0.01em"><tspan x="0" y="0">11,451 sales</tspan></text>
    <text id="_11_451_sales-2" data-name="11,451 sales" transform="translate(84 446)" fill="#707070" font-size="12" font-family="Montserrat-Regular, Montserrat" letter-spacing="0.01em"><tspan x="0" y="0">11,451 sales</tspan></text>
    <text id="_11_451_sales-3" data-name="11,451 sales" transform="translate(84 503)" fill="#707070" font-size="12" font-family="Montserrat-Regular, Montserrat" letter-spacing="0.01em"><tspan x="0" y="0">11,451 sales</tspan></text>
    <text id="اسم_المنتج" data-name="اسم المنتج" transform="translate(589 274)" fill="#23283b" font-size="15" font-family="Montserrat-Arabic-Light, Montserrat-Arabic" font-weight="300"><tspan x="-73.575" y="0">اسم المنتج</tspan></text>
    <text id="اسم_المنتج-2" data-name="اسم المنتج" transform="translate(589 331)" fill="#23283b" font-size="15" font-family="Montserrat-Arabic-Light, Montserrat-Arabic" font-weight="300"><tspan x="-73.575" y="0">اسم المنتج</tspan></text>
    <text id="اسم_المنتج-3" data-name="اسم المنتج" transform="translate(589 388)" fill="#23283b" font-size="15" font-family="Montserrat-Arabic-Light, Montserrat-Arabic" font-weight="300"><tspan x="-73.575" y="0">اسم المنتج</tspan></text>
    <text id="اسم_المنتج-4" data-name="اسم المنتج" transform="translate(589 445)" fill="#23283b" font-size="15" font-family="Montserrat-Arabic-Light, Montserrat-Arabic" font-weight="300"><tspan x="-73.575" y="0">اسم المنتج</tspan></text>
    <text id="اسم_المنتج-5" data-name="اسم المنتج" transform="translate(589 502)" fill="#23283b" font-size="15" font-family="Montserrat-Arabic-Light, Montserrat-Arabic" font-weight="300"><tspan x="-73.575" y="0">اسم المنتج</tspan></text>
    <rect id="Rectangle_282" data-name="Rectangle 282" width="505" height="3" rx="1.5" transform="translate(84 284)" fill="#ebebeb"/>
    <rect id="Rectangle_280" data-name="Rectangle 280" width="505" height="3" rx="1.5" transform="translate(84 341)" fill="#ebebeb"/>
    <rect id="Rectangle_278" data-name="Rectangle 278" width="505" height="3" rx="1.5" transform="translate(84 398)" fill="#ebebeb"/>
    <rect id="Rectangle_274" data-name="Rectangle 274" width="505" height="3" rx="1.5" transform="translate(84 455)" fill="#ebebeb"/>
    <rect id="Rectangle_275" data-name="Rectangle 275" width="505" height="3" rx="1.5" transform="translate(84 512)" fill="#ebebeb"/>
    <path id="Rectangle_283" data-name="Rectangle 283" d="M0,0H198.5A1.5,1.5,0,0,1,200,1.5v0A1.5,1.5,0,0,1,198.5,3H0A0,0,0,0,1,0,3V0A0,0,0,0,1,0,0Z" transform="translate(389 284)" fill="#4791ff"/>
    <path id="Rectangle_281" data-name="Rectangle 281" d="M0,0H157.5A1.5,1.5,0,0,1,159,1.5v0A1.5,1.5,0,0,1,157.5,3H0A0,0,0,0,1,0,3V0A0,0,0,0,1,0,0Z" transform="translate(430 341)" fill="#4791ff"/>
    <path id="Rectangle_279" data-name="Rectangle 279" d="M0,0H121.5A1.5,1.5,0,0,1,123,1.5v0A1.5,1.5,0,0,1,121.5,3H0A0,0,0,0,1,0,3V0A0,0,0,0,1,0,0Z" transform="translate(466 398)" fill="#4791ff"/>
    <path id="Rectangle_276" data-name="Rectangle 276" d="M0,0H85.5A1.5,1.5,0,0,1,87,1.5v0A1.5,1.5,0,0,1,85.5,3H0A0,0,0,0,1,0,3V0A0,0,0,0,1,0,0Z" transform="translate(502 455)" fill="#4791ff"/>
    <path id="Rectangle_277" data-name="Rectangle 277" d="M0,0H82.5A1.5,1.5,0,0,1,84,1.5v0A1.5,1.5,0,0,1,82.5,3H0A0,0,0,0,1,0,3V0A0,0,0,0,1,0,0Z" transform="translate(505 512)" fill="#4791ff"/>
  </g>
  <text id="أفضل_المنتجات" data-name="أفضل المنتجات" transform="translate(559 48)" fill="#23283b" font-size="21" font-family="Montserrat-Arabic-Bold, Montserrat-Arabic" font-weight="700" letter-spacing="0.02em"><tspan x="-169.953" y="0">أفضل المنتجات</tspan></text>
  <line id="Line_110" data-name="Line 110" x2="626" transform="translate(0 83)" fill="none" stroke="#efefef" stroke-width="1"/>
</svg>
