<svg xmlns="http://www.w3.org/2000/svg" width="19.742" height="19.742" viewBox="0 0 19.742 19.742">
  <g id="زر_الحذف" data-name="زر الحذف" transform="translate(-217 -364)">
    <rect id="Rectangle_318" data-name="Rectangle 318" width="19.742" height="19.742" rx="4" transform="translate(217 364)" fill="#f13c47"/>
    <path id="Path_452" data-name="Path 452" d="M8.2-3160.206H2.471a.561.561,0,0,1-.562-.505l-.73-7.3a.562.562,0,0,1,.143-.434.561.561,0,0,1,.418-.184.561.561,0,0,1,.562.505l.674,6.8H7.694l.674-6.8a.561.561,0,0,1,.562-.505.561.561,0,0,1,.418.184.562.562,0,0,1,.143.434l-.73,7.3a.561.561,0,0,1-.559.505Zm1.909-9.547H6.739a.562.562,0,0,1-.562-.562v-.562H4.493v.562a.562.562,0,0,1-.562.562H.59a.59.59,0,0,1-.59-.506.645.645,0,0,1,.168-.449.478.478,0,0,1,.393-.169H3.37v-.562a.561.561,0,0,1,.562-.561H6.739a.561.561,0,0,1,.562.561v.562h2.78a.59.59,0,0,1,.59.506.647.647,0,0,1-.169.449.477.477,0,0,1-.365.169Z" transform="translate(221.536 3539.974)" fill="#fff"/>
  </g>
</svg>
