<svg xmlns="http://www.w3.org/2000/svg" width="463.675" height="171" viewBox="0 0 463.675 171">
  <g id="صافي_الدخل" data-name="صافي الدخل" transform="translate(-719 -869)">
    <rect id="Rectangle_285" data-name="Rectangle 285" width="463.675" height="171" rx="20" transform="translate(719 869)" fill="#fff"/>
    <g id="Group_133" data-name="Group 133" transform="translate(0.5 -3)">
      <text id="صافي_الدخل-2" data-name="صافي الدخل" transform="translate(1154 921)" fill="#23283b" font-size="21" font-family="Montserrat-Arabic-Bold, Montserrat-Arabic" font-weight="700" letter-spacing="0.02em"><tspan x="-133.224" y="0">صافي الدخل</tspan></text>
      <g id="Group_104" data-name="Group 104" transform="translate(545.175 -182)">
        <text id="اجمالي_مداخيل" data-name="اجمالي مداخيل" transform="translate(593 1193)" fill="#23283b" font-size="12" font-family="Montserrat-Arabic-Light, Montserrat-Arabic" font-weight="300" letter-spacing="0.02em"><tspan x="-80.568" y="0">اجمالي مداخيل</tspan></text>
        <circle id="Ellipse_87" data-name="Ellipse 87" cx="5.5" cy="5.5" r="5.5" transform="translate(604 1184)" fill="#e0e2ef"/>
      </g>
      <g id="Group_105" data-name="Group 105" transform="translate(413.5 -182)">
        <text id="صافي_ارباح" data-name="صافي ارباح" transform="translate(593 1193)" fill="#23283b" font-size="12" font-family="Montserrat-Arabic-Light, Montserrat-Arabic" font-weight="300" letter-spacing="0.02em"><tspan x="-55.944" y="0">صافي ارباح</tspan></text>
        <circle id="Ellipse_87-2" data-name="Ellipse 87" cx="5.5" cy="5.5" r="5.5" transform="translate(604 1184)" fill="#38bb94"/>
      </g>
    </g>
    <g id="Group_102" data-name="Group 102" transform="translate(-309 388)">
      <g id="Group_76" data-name="Group 76" transform="translate(1051 500.422)">
        <rect id="Rectangle_236" data-name="Rectangle 236" width="2" height="80" rx="1" transform="translate(146 53.578)" fill="#e0e2ef"/>
        <rect id="Rectangle_243" data-name="Rectangle 243" width="2" height="80" rx="1" transform="translate(68 53.578)" fill="#e0e2ef"/>
        <rect id="Rectangle_230" data-name="Rectangle 230" width="2" height="110" rx="1" transform="translate(113 23.578)" fill="#e0e2ef"/>
        <rect id="Rectangle_237" data-name="Rectangle 237" width="2" height="110" rx="1" transform="translate(34 23.578)" fill="#e0e2ef"/>
        <rect id="Rectangle_231" data-name="Rectangle 231" width="2" height="68" rx="1" transform="translate(135 65.578)" fill="#e0e2ef"/>
        <rect id="Rectangle_238" data-name="Rectangle 238" width="2" height="53" rx="1" transform="translate(56 80.578)" fill="#e0e2ef"/>
        <rect id="Rectangle_232" data-name="Rectangle 232" width="2" height="134" rx="1" transform="translate(101 -0.422)" fill="#e0e2ef"/>
        <rect id="Rectangle_239" data-name="Rectangle 239" width="2" height="92" rx="1" transform="translate(23 41.578)" fill="#e0e2ef"/>
        <rect id="Rectangle_208" data-name="Rectangle 208" width="2" height="128" rx="1" transform="translate(158 5.578)" fill="#e0e2ef"/>
        <rect id="Rectangle_233" data-name="Rectangle 233" width="2" height="76" rx="1" transform="translate(79 57.578)" fill="#e0e2ef"/>
        <rect id="Rectangle_240" data-name="Rectangle 240" width="2" height="100" rx="1" transform="translate(0 33.578)" fill="#e0e2ef"/>
        <rect id="Rectangle_234" data-name="Rectangle 234" width="2" height="47" rx="1" transform="translate(124 86.578)" fill="#e0e2ef"/>
        <rect id="Rectangle_241" data-name="Rectangle 241" width="2" height="68" rx="1" transform="translate(45 65.578)" fill="#e0e2ef"/>
        <rect id="Rectangle_204" data-name="Rectangle 204" width="2" height="82" rx="1" transform="translate(169 51.578)" fill="#e0e2ef"/>
        <rect id="Rectangle_235" data-name="Rectangle 235" width="2" height="82" rx="1" transform="translate(90 51.578)" fill="#e0e2ef"/>
        <rect id="Rectangle_242" data-name="Rectangle 242" width="2" height="82" rx="1" transform="translate(11 51.578)" fill="#e0e2ef"/>
      </g>
      <g id="Group_78" data-name="Group 78" transform="translate(-77 -113.342)">
        <rect id="Rectangle_236-2" data-name="Rectangle 236" width="2" height="49" rx="1" transform="translate(1274 698.342)" fill="#38bb94"/>
        <rect id="Rectangle_243-2" data-name="Rectangle 243" width="2" height="55" rx="1" transform="translate(1196 692.342)" fill="#38bb94"/>
        <rect id="Rectangle_230-2" data-name="Rectangle 230" width="2" height="76" rx="1" transform="translate(1241 671.342)" fill="#38bb94"/>
        <rect id="Rectangle_237-2" data-name="Rectangle 237" width="2" height="76" rx="1" transform="translate(1162 671.342)" fill="#38bb94"/>
        <rect id="Rectangle_231-2" data-name="Rectangle 231" width="2" height="41" rx="1" transform="translate(1263 706.342)" fill="#38bb94"/>
        <rect id="Rectangle_238-2" data-name="Rectangle 238" width="2" height="37" rx="1" transform="translate(1184 710.342)" fill="#38bb94"/>
        <rect id="Rectangle_232-2" data-name="Rectangle 232" width="2" height="91" rx="1" transform="translate(1229 656.342)" fill="#38bb94"/>
        <rect id="Rectangle_239-2" data-name="Rectangle 239" width="2" height="63" rx="1" transform="translate(1151 684.342)" fill="#38bb94"/>
        <rect id="Rectangle_208-2" data-name="Rectangle 208" width="2" height="78" rx="1" transform="translate(1286 669.342)" fill="#38bb94"/>
        <rect id="Rectangle_233-2" data-name="Rectangle 233" width="2" height="52" rx="1" transform="translate(1207 695.342)" fill="#38bb94"/>
        <rect id="Rectangle_240-2" data-name="Rectangle 240" width="2" height="68" rx="1" transform="translate(1128 679.342)" fill="#38bb94"/>
        <rect id="Rectangle_234-2" data-name="Rectangle 234" width="2" height="28" rx="1" transform="translate(1252 719.342)" fill="#38bb94"/>
        <rect id="Rectangle_241-2" data-name="Rectangle 241" width="2" height="47" rx="1" transform="translate(1173 700.342)" fill="#38bb94"/>
        <rect id="Rectangle_204-2" data-name="Rectangle 204" width="2" height="50" rx="1" transform="translate(1297 697.342)" fill="#38bb94"/>
        <rect id="Rectangle_235-2" data-name="Rectangle 235" width="2" height="56" rx="1" transform="translate(1218 691.342)" fill="#38bb94"/>
        <rect id="Rectangle_242-2" data-name="Rectangle 242" width="2" height="56" rx="1" transform="translate(1139 691.342)" fill="#38bb94"/>
      </g>
    </g>
  </g>
</svg>
